<svg width="86" height="80" viewBox="0 0 86 80" fill="none" xmlns="http://www.w3.org/2000/svg">
<path d="M83.0155 64.8655L64.4466 47.6563C71.8741 35.4774 70.0649 19.6803 58.8283 9.35475C52.1626 3.08883 43.3067 0 34.4508 0C25.5949 0 16.831 3.08883 10.07 9.35475C-3.35668 21.7983 -3.35668 42.0964 10.07 54.5399C16.831 60.8059 25.5917 63.8947 34.4476 63.8947C40.3515 63.8947 46.1603 62.4827 51.4928 59.7468L69.9665 76.8678C71.7757 78.5446 74.1564 79.3389 76.537 79.3389C78.9176 79.3389 81.2982 78.5446 83.1075 76.8678C86.5356 73.6025 86.5356 68.1308 83.0123 64.8655H83.0155ZM80.9205 75.0145C79.7778 76.0735 78.159 76.6913 76.4449 76.6913C74.7309 76.6913 73.1121 76.0735 71.9694 75.0145L53.4957 57.8935L51.9721 56.4815L50.0676 57.4523C45.3064 59.9233 39.9738 61.2471 34.4508 61.2471C26.071 61.2471 18.0721 58.2466 12.1682 52.6867C-0.115856 41.3021 -0.115856 22.6809 12.1682 11.2963C18.1673 5.7364 26.071 2.73582 34.546 2.73582C43.021 2.73582 50.9247 5.82466 56.9238 11.2963C66.9225 20.5628 69.0174 34.9479 62.066 46.4207L61.0185 48.1858L62.5421 49.5978L80.9205 66.7188C82.0632 67.7778 82.7298 69.2781 82.7298 70.8666C82.7298 72.4552 82.1584 73.9555 80.9205 75.0145Z" fill="#334155"/>
<path d="M34.4504 10.9433C28.356 10.9433 22.7377 13.1496 18.4526 17.121C9.59669 25.3284 9.59669 38.6545 18.4526 46.7738C22.7377 50.7451 28.4512 52.9514 34.4504 52.9514C40.4495 52.9514 45.9726 50.8334 50.2577 47.0385L50.4482 46.862C50.5116 46.8032 50.5434 46.7443 50.5434 46.6855C50.6386 46.6855 50.6386 46.5972 50.7338 46.5972L50.9243 46.4207C59.4945 38.2133 59.3993 25.0637 50.7338 16.9445C46.2583 13.1496 40.5448 10.9433 34.4504 10.9433ZM48.6389 44.744C48.5437 44.8322 48.4484 44.8322 48.3532 44.9205C48.258 45.0087 48.258 45.097 48.1628 45.1852C44.3538 48.6271 39.4021 50.3921 34.4504 50.3921C29.4987 50.3921 24.3565 48.6271 20.5476 45.0087C12.8343 37.8603 12.8343 26.2992 20.5476 19.1508C24.3565 15.6207 29.4987 13.7674 34.5456 13.7674C39.5925 13.7674 44.6394 15.5324 48.5437 19.1508C56.0664 26.1227 56.1617 37.5073 48.6389 44.744Z" fill="#334155"/>
<path d="M41.0209 30.6236H35.8788V25.858C35.8788 25.1519 35.2122 24.5342 34.4504 24.5342C33.6886 24.5342 33.0221 25.1519 33.0221 25.858V30.6236H27.8799C27.1181 30.6236 26.4515 31.2414 26.4515 31.9474C26.4515 32.6534 27.1181 33.2712 27.8799 33.2712H33.0221V38.0368C33.0221 38.7428 33.6886 39.3606 34.4504 39.3606C35.2122 39.3606 35.8788 38.7428 35.8788 38.0368V33.2712H41.0209C41.7827 33.2712 42.4493 32.6534 42.4493 31.9474C42.5445 31.2414 41.878 30.6236 41.0209 30.6236Z" fill="#334155"/>
</svg>
